<svg fill="#3C50E0" id="Layer_1" data-name="Layer 1" xmlns="http://www.w3.org/2000/svg" viewBox="0 0 122.88 79.13"><defs><style>.cls-1{fill-rule:evenodd;}</style></defs><title>users</title><path class="cls-1" d="M72.74,51.34A11.29,11.29,0,0,1,67.43,48c3.55-1.34,5.2-4.93,5.42-11.22.17-4.68-.79-8.2.8-12.81C76.8,14.82,88.48,11.7,95,17.05c5.1-.55,10.24,2.08,11.35,10,.82,5.86-.93,11,.92,16.4a8.41,8.41,0,0,0,4.35,5.15,12.65,12.65,0,0,1-5.81,2.8,59.57,59.57,0,0,1-9.17,1v2.76l3.19,5.1-10.3,8.07-10.3-8,2.29-4.9v-3a39.86,39.86,0,0,1-8.76-1.1ZM29,53.86a7.58,7.58,0,0,1,.79-2.76c-2.26-2-4-4-4.42-8.19h-.24a3.35,3.35,0,0,1-1.6-.42,4.34,4.34,0,0,1-1.76-2.14c-.82-1.87-1.46-6.78.59-8.18L22,31.92l0-.55c-.08-1-.1-2.18-.12-3.44-.07-4.61-.17-10.2-3.88-11.33l-1.59-.48,1.05-1.29a60.37,60.37,0,0,1,9.29-9.44C30.23,2.58,33.87.7,37.42.16A13,13,0,0,1,47.89,3.09,20.24,20.24,0,0,1,50.7,5.91a11.86,11.86,0,0,1,8.37,4.9,17,17,0,0,1,2.73,5.5,18.78,18.78,0,0,1,.73,6.24,15,15,0,0,1-4.34,10.12,3.11,3.11,0,0,1,1.35.35c1.55.83,1.6,2.62,1.19,4.13-.4,1.26-.91,2.73-1.39,4-.59,1.66-1.44,2-3.1,1.79-.08,4.1-2,6.11-4.53,8.52l.58,2c-1.61,7.8-18.69,8.65-23.31.43ZM0,79.13C1.62,58.19,5.56,66,23.42,54.86c4.93,12.8,28.6,13.65,33.79,0,15.42,9.85,23.11,2.41,23,24.27ZM105.69,64.61c-1.69-3.4-2.27-4.71-4.76-7.42,4.7,1.83,8.71,2.06,12.27,4.29,2.27,1.42,5.63,2.49,6.55,4.21,2.26,4.23,1.92,8.94,3.13,13.44H86.26a70.42,70.42,0,0,0-.41-8.56l3.39,2.71,11.55-8.79,4.9.12ZM77.93,57.26l.17-.07L78,57.3l-.08,0Z"/></svg>